<?xml version="1.0" encoding="UTF-8"?>
<svg width="100" height="24" viewBox="0 0 100 24" fill="none" xmlns="http://www.w3.org/2000/svg">
  <path d="M11.5714 0C5.18143 0 0 5.18143 0 11.5714C0 17.9614 5.18143 23.1429 11.5714 23.1429C17.9614 23.1429 23.1429 17.9614 23.1429 11.5714C23.1429 5.18143 17.9614 0 11.5714 0ZM11.5714 4.28571C13.9286 4.28571 15.8571 6.21429 15.8571 8.57143C15.8571 10.9286 13.9286 12.8571 11.5714 12.8571C9.21429 12.8571 7.28571 10.9286 7.28571 8.57143C7.28571 6.21429 9.21429 4.28571 11.5714 4.28571Z" fill="currentColor"/>
  <path d="M35.4286 5.71429V17.1429H32.5714V15.8571C31.7143 16.7143 30.4286 17.5714 28.7143 17.5714C25.8571 17.5714 23.5714 15.2857 23.5714 11.4286C23.5714 7.57143 25.8571 5.28571 28.7143 5.28571C30.4286 5.28571 31.7143 6.14286 32.5714 7V5.71429H35.4286ZM32.5714 11.4286C32.5714 9.14286 31.2857 7.85714 29.4286 7.85714C27.5714 7.85714 26.2857 9.14286 26.2857 11.4286C26.2857 13.7143 27.5714 15 29.4286 15C31.2857 15 32.5714 13.7143 32.5714 11.4286Z" fill="currentColor"/>
  <path d="M44.5714 5.28571C47.4286 5.28571 49.7143 7.57143 49.7143 11.4286C49.7143 15.2857 47.4286 17.5714 44.5714 17.5714C42.8571 17.5714 41.5714 16.7143 40.7143 15.8571V17.1429H37.8571V0H40.7143V7C41.5714 6.14286 42.8571 5.28571 44.5714 5.28571ZM44 7.85714C42.1429 7.85714 40.8571 9.14286 40.8571 11.4286C40.8571 13.7143 42.1429 15 44 15C45.8571 15 47.1429 13.7143 47.1429 11.4286C47.1429 9.14286 45.8571 7.85714 44 7.85714Z" fill="currentColor"/>
  <path d="M57.7143 5.28571C61.5714 5.28571 64.4286 7.57143 64.4286 11.4286C64.4286 15.2857 61.5714 17.5714 57.7143 17.5714C53.8571 17.5714 51 15.2857 51 11.4286C51 7.57143 53.8571 5.28571 57.7143 5.28571ZM57.7143 7.85714C55.8571 7.85714 54.5714 9.14286 54.5714 11.4286C54.5714 13.7143 55.8571 15 57.7143 15C59.5714 15 60.8571 13.7143 60.8571 11.4286C60.8571 9.14286 59.5714 7.85714 57.7143 7.85714Z" fill="currentColor"/>
  <path d="M73.5714 5.28571C77.4286 5.28571 80.2857 7.57143 80.2857 11.4286C80.2857 15.2857 77.4286 17.5714 73.5714 17.5714C69.7143 17.5714 66.8571 15.2857 66.8571 11.4286C66.8571 7.57143 69.7143 5.28571 73.5714 5.28571ZM73.5714 7.85714C71.7143 7.85714 70.4286 9.14286 70.4286 11.4286C70.4286 13.7143 71.7143 15 73.5714 15C75.4286 15 76.7143 13.7143 76.7143 11.4286C76.7143 9.14286 75.4286 7.85714 73.5714 7.85714Z" fill="currentColor"/>
  <path d="M89.4286 5.28571C93.2857 5.28571 96.1429 7.57143 96.1429 11.4286C96.1429 15.2857 93.2857 17.5714 89.4286 17.5714C85.5714 17.5714 82.7143 15.2857 82.7143 11.4286C82.7143 7.57143 85.5714 5.28571 89.4286 5.28571ZM89.4286 7.85714C87.5714 7.85714 86.2857 9.14286 86.2857 11.4286C86.2857 13.7143 87.5714 15 89.4286 15C91.2857 15 92.5714 13.7143 92.5714 11.4286C92.5714 9.14286 91.2857 7.85714 89.4286 7.85714Z" fill="currentColor"/>
</svg> 