<svg xmlns="http://www.w3.org/2000/svg" xmlns:xlink="http://www.w3.org/1999/xlink" viewBox="0 0 114 36"><path d="M 5.796 23.139 L 0.259 20.092 L 0.259 27.57 C 0.259 28.675 1.16 29.571 2.27 29.571 L 9.788 29.571 L 6.723 24.063 C 6.507 23.675 6.185 23.354 5.794 23.139 Z M 21.511 6.429 L 2.27 6.429 C 1.16 6.429 0.259 7.325 0.259 8.43 L 0.259 15.233 L 16.466 10.913 C 18.014 10.501 19.43 11.909 19.016 13.45 L 14.674 29.571 L 21.512 29.571 C 22.622 29.571 23.524 28.676 23.524 27.57 L 23.524 8.43 C 23.523 7.325 22.622 6.429 21.511 6.429 Z M 36.449 27.121 L 36.449 7.714 L 39.836 7.714 L 39.836 24.11 L 49.08 24.11 L 49.08 27.121 Z M 55.398 27.465 C 54.345 27.465 53.417 27.283 52.613 26.92 C 51.828 26.538 51.216 26.021 50.776 25.372 C 50.335 24.703 50.115 23.919 50.115 23.02 C 50.115 22.179 50.297 21.424 50.661 20.755 C 51.044 20.086 51.627 19.522 52.412 19.064 C 53.197 18.605 54.182 18.28 55.369 18.089 L 60.766 17.2 L 60.766 19.752 L 56 20.583 C 55.139 20.736 54.508 21.013 54.106 21.415 C 53.704 21.797 53.503 22.294 53.503 22.906 C 53.503 23.498 53.723 23.986 54.163 24.368 C 54.622 24.731 55.206 24.913 55.914 24.913 C 56.794 24.913 57.56 24.722 58.211 24.339 C 58.881 23.957 59.397 23.45 59.761 22.82 C 60.125 22.17 60.306 21.453 60.306 20.669 L 60.306 16.684 C 60.306 15.919 60.019 15.298 59.445 14.82 C 58.89 14.323 58.144 14.074 57.206 14.074 C 56.345 14.074 55.589 14.304 54.938 14.763 C 54.307 15.202 53.838 15.776 53.532 16.483 L 50.833 15.135 C 51.12 14.371 51.589 13.702 52.24 13.128 C 52.89 12.536 53.646 12.077 54.508 11.752 C 55.388 11.427 56.316 11.265 57.292 11.265 C 58.517 11.265 59.598 11.494 60.536 11.953 C 61.493 12.411 62.23 13.052 62.747 13.874 C 63.282 14.677 63.55 15.613 63.55 16.684 L 63.55 27.121 L 60.45 27.121 L 60.45 24.311 L 61.11 24.397 C 60.749 25.025 60.272 25.579 59.704 26.031 C 59.148 26.49 58.507 26.843 57.78 27.092 C 57.072 27.34 56.278 27.465 55.398 27.465 Z M 67.86 33.429 C 67.477 33.429 67.094 33.39 66.712 33.314 C 66.348 33.257 66.013 33.161 65.707 33.027 L 65.707 30.246 C 65.936 30.303 66.214 30.351 66.539 30.389 C 66.865 30.447 67.181 30.475 67.487 30.475 C 68.386 30.475 69.047 30.275 69.467 29.873 C 69.908 29.491 70.3 28.898 70.644 28.095 L 71.678 25.744 L 71.621 28.468 L 64.903 11.609 L 68.377 11.609 L 73.343 24.54 L 72.166 24.54 L 77.104 11.609 L 80.606 11.609 L 73.745 28.812 C 73.381 29.73 72.922 30.533 72.367 31.221 C 71.831 31.928 71.19 32.473 70.443 32.855 C 69.716 33.237 68.855 33.429 67.86 33.429 Z M 87.505 27.465 C 86.338 27.465 85.314 27.207 84.434 26.69 C 83.553 26.155 82.864 25.419 82.367 24.483 C 81.888 23.527 81.649 22.428 81.649 21.185 L 81.649 11.609 L 84.893 11.609 L 84.893 20.899 C 84.893 21.606 85.036 22.227 85.323 22.762 C 85.611 23.298 86.012 23.718 86.529 24.024 C 87.046 24.311 87.639 24.454 88.309 24.454 C 88.998 24.454 89.601 24.301 90.118 23.995 C 90.634 23.689 91.036 23.259 91.323 22.705 C 91.63 22.151 91.783 21.501 91.783 20.755 L 91.783 11.609 L 94.998 11.609 L 94.998 27.121 L 91.926 27.121 L 91.926 24.081 L 92.271 24.483 C 91.907 25.438 91.304 26.174 90.462 26.69 C 89.62 27.207 88.634 27.465 87.505 27.465 Z M 97.924 32.855 L 97.924 11.609 L 101.024 11.609 L 101.024 14.82 L 100.651 14.074 C 101.225 13.195 101.991 12.507 102.948 12.01 C 103.905 11.513 104.996 11.265 106.22 11.265 C 107.694 11.265 109.015 11.618 110.182 12.325 C 111.369 13.033 112.297 13.998 112.967 15.221 C 113.656 16.445 114 17.821 114 19.35 C 114 20.879 113.656 22.256 112.967 23.479 C 112.297 24.703 111.378 25.677 110.211 26.404 C 109.043 27.111 107.713 27.465 106.22 27.465 C 105.015 27.465 103.914 27.216 102.919 26.719 C 101.943 26.222 101.187 25.505 100.651 24.569 L 101.168 23.966 L 101.168 32.855 Z M 105.905 24.454 C 106.823 24.454 107.637 24.234 108.345 23.794 C 109.053 23.355 109.608 22.753 110.01 21.988 C 110.431 21.204 110.641 20.325 110.641 19.35 C 110.641 18.375 110.431 17.506 110.01 16.741 C 109.608 15.976 109.053 15.374 108.345 14.935 C 107.637 14.495 106.823 14.275 105.905 14.275 C 105.005 14.275 104.192 14.495 103.465 14.935 C 102.757 15.374 102.192 15.976 101.771 16.741 C 101.369 17.506 101.168 18.375 101.168 19.35 C 101.168 20.325 101.369 21.204 101.771 21.988 C 102.192 22.753 102.757 23.355 103.465 23.794 C 104.192 24.234 105.005 24.454 105.905 24.454 Z" fill="rgb(0,0,0)"></path></svg>